<svg xmlns:xlink="http://www.w3.org/1999/xlink" width="914" ed:hSpacing="30" xmlns="http://www.w3.org/2000/svg" xmlns:ev="http://www.w3.org/2001/xml-events" height="354" ed:name="页面-1" viewBox="0 0 914 354" xmlns:ed="https://www.edrawsoft.cn/xml/2017/SVGExtensions/" ed:vSpacing="30" id="page100"><style type="text/css"><![CDATA[
g[ed\:togtopicid],g[ed\:hyperlink],g[ed\:comment],g[ed\:note] {cursor:pointer;}
g[id] {-moz-user-select: none;-ms-user-select: none;user-select: none;}
svg text::selection,svg tspan::selection{background-color: #4285f4;color: #ffffff;fill: #ffffff;}
.st12 {fill:#303030;font-family:微软雅黑;font-size:10pt}
.st11 {fill:#303030;font-family:微软雅黑;font-size:14pt;font-weight:bold}
.st10 {fill:#ffffff;font-family:微软雅黑;font-size:18pt;font-weight:bold}
]]></style><defs/><rect width="914" height="354" x="0" y="0" fill="#ffffff"/><path stroke="#454545" stroke-width="3" ed:parentid="101" stroke-linecap="round" ed:tosuperid="102" id="103" transform="matrix(1,0,0,1,89,103.5)" stroke-linejoin="round" d="M0,-19.5L0,19.5" fill="none"/><path stroke="#454545" stroke-width="3" ed:parentid="101" stroke-linecap="round" ed:tosuperid="104" id="105" transform="matrix(1,0,0,1,89,185.5)" stroke-linejoin="round" d="M0,-19.5L0,19.5" fill="none"/><path stroke="#454545" stroke-width="3" ed:parentid="101" stroke-linecap="round" ed:tosuperid="106" id="107" transform="matrix(1,0,0,1,89,267.5)" stroke-linejoin="round" d="M0,-19.5L0,19.5" fill="none"/><path stroke="#454545" ed:parentid="104" stroke-linecap="round" ed:tosuperid="108" id="109" transform="matrix(1,0,0,1,141,226.5)" stroke-linejoin="round" d="M-13.5,0L0,0C0,0,2.7,0,6,0L13.5,0" fill="none"/><path stroke="#454545" ed:parentid="108" stroke-linecap="round" ed:tosuperid="110" id="111" transform="matrix(1,0,0,1,353,226.5)" stroke-linejoin="round" d="M-13.5,0L0,0C0,0,2.7,0,6,0L13.5,0" fill="none"/><path stroke="#454545" ed:parentid="110" stroke-linecap="round" ed:tosuperid="112" id="113" transform="matrix(1,0,0,1,461,226.5)" stroke-linejoin="round" d="M-13.5,0L0,0C0,0,2.7,0,6,0L13.5,0" fill="none"/><g ed:width="100.12" ed:height="63" ed:layout="map" id="101" transform="matrix(1,0,0,1,38.94,21)" ed:topictype="mainidea"><path stroke="#00af54" stroke-width="3" stroke-linejoin="round" d="M31.5,0L68.6,0C86,0,100.1,14.1,100.1,31.5C100.1,48.9,86,63,68.6,63L31.5,63C14.1,63,0,48.9,0,31.5C0,14.1,14.1,0,31.5,0z" fill="#00af54"/><text class="st10"><tspan textLength="12" style="white-space:pre" x="26" y="39.45">s</tspan><tspan textLength="7" style="white-space:pre" x="38.86">l</tspan><tspan textLength="16" style="white-space:pre" x="45.86">o</tspan><tspan textLength="10" style="white-space:pre" x="61.86">t</tspan></text></g><g ed:width="134" ed:parentid="101" ed:height="43" ed:layout="rightmap" id="102" transform="matrix(1,0,0,1,22,123)"><path stroke="#454545" stroke-width="2" stroke-linejoin="round" d="M4,0L130,0C132.7,0,134,1.3,134,4L134,39C134,41.7,132.7,43,130,43L4,43C1.3,43,0,41.7,0,39L0,4C0,1.3,1.3,0,4,0z" fill="#ffffff"/><text class="st11"><tspan textLength="19" style="white-space:pre" x="18" y="26.95">待</tspan><tspan textLength="19" style="white-space:pre" x="37.8">调</tspan><tspan textLength="19" style="white-space:pre" x="56.8">整</tspan><tspan textLength="19" style="white-space:pre" x="75.8">顺</tspan><tspan textLength="19" style="white-space:pre" x="94.8">序</tspan></text></g><g ed:width="77" ed:parentid="101" ed:height="43" ed:layout="rightmap" id="104" transform="matrix(1,0,0,1,50.5,205)"><path stroke="#454545" stroke-width="2" stroke-linejoin="round" d="M4,0L73,0C75.7,0,77,1.3,77,4L77,39C77,41.7,75.7,43,73,43L4,43C1.3,43,0,41.7,0,39L0,4C0,1.3,1.3,0,4,0z" fill="#ffffff"/><text class="st11"><tspan textLength="19" style="white-space:pre" x="18" y="26.95">主</tspan><tspan textLength="19" style="white-space:pre" x="37.8">题</tspan></text></g><g ed:width="77" ed:parentid="101" ed:height="43" ed:layout="rightmap" id="106" transform="matrix(1,0,0,1,50.5,287)"><path stroke="#454545" stroke-width="2" stroke-linejoin="round" d="M4,0L73,0C75.7,0,77,1.3,77,4L77,39C77,41.7,75.7,43,73,43L4,43C1.3,43,0,41.7,0,39L0,4C0,1.3,1.3,0,4,0z" fill="#ffffff"/><text class="st11"><tspan textLength="19" style="white-space:pre" x="18" y="26.95">主</tspan><tspan textLength="19" style="white-space:pre" x="37.8">题</tspan></text></g><g ed:width="185" ed:parentid="104" ed:height="23" ed:layout="rightmap" id="108" transform="matrix(1,0,0,1,154.5,215)"><path d="M0,0L185,0L185,23L0,23L0,0z" fill="#ffffff"/><text class="st12"><tspan textLength="6" style="white-space:pre" x="9" y="16.45">s</tspan><tspan textLength="5" style="white-space:pre" x="15.3">r</tspan><tspan textLength="7" style="white-space:pre" x="20.3">c</tspan><tspan textLength="6" style="white-space:pre" x="27.3">/</tspan><tspan textLength="7" style="white-space:pre" x="33.3">c</tspan><tspan textLength="8" style="white-space:pre" x="40.3">o</tspan><tspan textLength="5" style="white-space:pre" x="48.3">r</tspan><tspan textLength="7" style="white-space:pre" x="53.3">e</tspan><tspan textLength="6" style="white-space:pre" x="60.3">/</tspan><tspan textLength="3" style="white-space:pre" x="66.3">i</tspan><tspan textLength="8" style="white-space:pre" x="69.3">n</tspan><tspan textLength="6" style="white-space:pre" x="77.3">s</tspan><tspan textLength="5" style="white-space:pre" x="83.3">t</tspan><tspan textLength="7" style="white-space:pre" x="88.3">a</tspan><tspan textLength="8" style="white-space:pre" x="95.3">n</tspan><tspan textLength="7" style="white-space:pre" x="103.3">c</tspan><tspan textLength="7" style="white-space:pre" x="110.3">e</tspan><tspan textLength="6" style="white-space:pre" x="117.3">/</tspan><tspan textLength="5" style="white-space:pre" x="123.3">r</tspan><tspan textLength="7" style="white-space:pre" x="128.3">e</tspan><tspan textLength="8" style="white-space:pre" x="135.3">n</tspan><tspan textLength="8" style="white-space:pre" x="143.3">d</tspan><tspan textLength="7" style="white-space:pre" x="151.3">e</tspan><tspan textLength="5" style="white-space:pre" x="158.3">r</tspan><tspan textLength="3" style="white-space:pre" x="163.3">.</tspan><tspan textLength="3" style="white-space:pre" x="166.3">j</tspan><tspan textLength="6" style="white-space:pre" x="169.3">s</tspan></text></g><g ed:width="81" ed:parentid="108" ed:height="23" ed:layout="rightmap" id="110" transform="matrix(1,0,0,1,366.5,215)"><path d="M0,0L81,0L81,23L0,23L0,0z" fill="#ffffff"/><text class="st12"><tspan textLength="3" style="white-space:pre" x="9" y="16.45">i</tspan><tspan textLength="8" style="white-space:pre" x="12.3">n</tspan><tspan textLength="3" style="white-space:pre" x="20.3">i</tspan><tspan textLength="5" style="white-space:pre" x="23.3">t</tspan><tspan textLength="8" style="white-space:pre" x="28.3">R</tspan><tspan textLength="7" style="white-space:pre" x="36.3">e</tspan><tspan textLength="8" style="white-space:pre" x="43.3">n</tspan><tspan textLength="8" style="white-space:pre" x="51.3">d</tspan><tspan textLength="7" style="white-space:pre" x="59.3">e</tspan><tspan textLength="5" style="white-space:pre" x="66.3">r</tspan></text></g><g ed:width="418" ed:parentid="110" ed:height="42" ed:layout="rightmap" id="112" transform="matrix(1,0,0,1,474.5,205.5)"><path d="M0,0L418,0L418,42L0,42L0,0z" fill="#ffffff"/><text class="st12"><tspan textLength="7" style="white-space:pre" x="9" y="16.45">v</tspan><tspan textLength="12" style="white-space:pre" x="16.3">m</tspan><tspan textLength="3" style="white-space:pre" x="28.3">.</tspan><tspan textLength="8" style="white-space:pre" x="31.3">$</tspan><tspan textLength="6" style="white-space:pre" x="39.3">s</tspan><tspan textLength="3" style="white-space:pre" x="45.3">l</tspan><tspan textLength="8" style="white-space:pre" x="48.3">o</tspan><tspan textLength="5" style="white-space:pre" x="56.3">t</tspan><tspan textLength="6" style="white-space:pre" x="61.3">s</tspan><tspan textLength="4" style="white-space:pre" x="67.3"> </tspan><tspan textLength="10" style="white-space:pre" x="71.3">=</tspan><tspan textLength="4" style="white-space:pre" x="81.3"> </tspan><tspan textLength="5" style="white-space:pre" x="85.3">r</tspan><tspan textLength="7" style="white-space:pre" x="90.3">e</tspan><tspan textLength="6" style="white-space:pre" x="97.3">s</tspan><tspan textLength="8" style="white-space:pre" x="103.3">o</tspan><tspan textLength="3" style="white-space:pre" x="111.3">l</tspan><tspan textLength="7" style="white-space:pre" x="114.3">v</tspan><tspan textLength="7" style="white-space:pre" x="121.3">e</tspan><tspan textLength="8" style="white-space:pre" x="128.3">S</tspan><tspan textLength="3" style="white-space:pre" x="136.3">l</tspan><tspan textLength="8" style="white-space:pre" x="139.3">o</tspan><tspan textLength="5" style="white-space:pre" x="147.3">t</tspan><tspan textLength="6" style="white-space:pre" x="152.3">s</tspan><tspan textLength="4" style="white-space:pre" x="158.3">(</tspan><tspan textLength="8" style="white-space:pre" x="162.3">o</tspan><tspan textLength="8" style="white-space:pre" x="170.3">p</tspan><tspan textLength="5" style="white-space:pre" x="178.3">t</tspan><tspan textLength="3" style="white-space:pre" x="183.3">i</tspan><tspan textLength="8" style="white-space:pre" x="186.3">o</tspan><tspan textLength="8" style="white-space:pre" x="194.3">n</tspan><tspan textLength="6" style="white-space:pre" x="202.3">s</tspan><tspan textLength="3" style="white-space:pre" x="208.3">.</tspan><tspan textLength="6" style="white-space:pre" x="211.3">_</tspan><tspan textLength="5" style="white-space:pre" x="217.3">r</tspan><tspan textLength="7" style="white-space:pre" x="222.3">e</tspan><tspan textLength="8" style="white-space:pre" x="229.3">n</tspan><tspan textLength="8" style="white-space:pre" x="237.3">d</tspan><tspan textLength="7" style="white-space:pre" x="245.3">e</tspan><tspan textLength="5" style="white-space:pre" x="252.3">r</tspan><tspan textLength="9" style="white-space:pre" x="257.3">C</tspan><tspan textLength="8" style="white-space:pre" x="266.3">h</tspan><tspan textLength="3" style="white-space:pre" x="274.3">i</tspan><tspan textLength="3" style="white-space:pre" x="277.3">l</tspan><tspan textLength="8" style="white-space:pre" x="280.3">d</tspan><tspan textLength="5" style="white-space:pre" x="288.3">r</tspan><tspan textLength="7" style="white-space:pre" x="293.3">e</tspan><tspan textLength="8" style="white-space:pre" x="300.3">n</tspan><tspan textLength="3" style="white-space:pre" x="308.3">,</tspan><tspan textLength="4" style="white-space:pre" x="311.3"> </tspan><tspan textLength="5" style="white-space:pre" x="315.3">r</tspan><tspan textLength="7" style="white-space:pre" x="320.3">e</tspan><tspan textLength="8" style="white-space:pre" x="327.3">n</tspan><tspan textLength="8" style="white-space:pre" x="335.3">d</tspan><tspan textLength="7" style="white-space:pre" x="343.3">e</tspan><tspan textLength="5" style="white-space:pre" x="350.3">r</tspan><tspan textLength="9" style="white-space:pre" x="355.3">C</tspan><tspan textLength="8" style="white-space:pre" x="364.3">o</tspan><tspan textLength="8" style="white-space:pre" x="372.3">n</tspan><tspan textLength="5" style="white-space:pre" x="380.3">t</tspan><tspan textLength="7" style="white-space:pre" x="385.3">e</tspan><tspan textLength="7" style="white-space:pre" x="392.3">x</tspan><tspan textLength="5" style="white-space:pre" x="399.3">t</tspan><tspan textLength="4" style="white-space:pre" x="404.3">)</tspan><tspan textLength="4" style="white-space:pre" x="9" y="35.45"> </tspan><tspan textLength="4" style="white-space:pre" x="13.3"> </tspan><tspan textLength="7" style="white-space:pre" x="17.3">v</tspan><tspan textLength="12" style="white-space:pre" x="24.3">m</tspan><tspan textLength="3" style="white-space:pre" x="36.3">.</tspan><tspan textLength="8" style="white-space:pre" x="39.3">$</tspan><tspan textLength="6" style="white-space:pre" x="47.3">s</tspan><tspan textLength="7" style="white-space:pre" x="53.3">c</tspan><tspan textLength="8" style="white-space:pre" x="60.3">o</tspan><tspan textLength="8" style="white-space:pre" x="68.3">p</tspan><tspan textLength="7" style="white-space:pre" x="76.3">e</tspan><tspan textLength="8" style="white-space:pre" x="83.3">d</tspan><tspan textLength="8" style="white-space:pre" x="91.3">S</tspan><tspan textLength="3" style="white-space:pre" x="99.3">l</tspan><tspan textLength="8" style="white-space:pre" x="102.3">o</tspan><tspan textLength="5" style="white-space:pre" x="110.3">t</tspan><tspan textLength="6" style="white-space:pre" x="115.3">s</tspan><tspan textLength="4" style="white-space:pre" x="121.3"> </tspan><tspan textLength="10" style="white-space:pre" x="125.3">=</tspan><tspan textLength="4" style="white-space:pre" x="135.3"> </tspan><tspan textLength="7" style="white-space:pre" x="139.3">e</tspan><tspan textLength="12" style="white-space:pre" x="146.3">m</tspan><tspan textLength="8" style="white-space:pre" x="158.3">p</tspan><tspan textLength="5" style="white-space:pre" x="166.3">t</tspan><tspan textLength="7" style="white-space:pre" x="171.3">y</tspan><tspan textLength="11" style="white-space:pre" x="178.3">O</tspan><tspan textLength="8" style="white-space:pre" x="189.3">b</tspan><tspan textLength="3" style="white-space:pre" x="197.3">j</tspan><tspan textLength="7" style="white-space:pre" x="200.3">e</tspan><tspan textLength="7" style="white-space:pre" x="207.3">c</tspan><tspan textLength="5" style="white-space:pre" x="214.3">t</tspan></text></g></svg>